<svg role="img" aria-label="Light theme icon" class="icon__svg" xmlns="http://www.w3.org/2000/svg" viewBox="0 0 26 26" width="16" height="16"><path class="icon__path" fill-rule="evenodd" clip-rule="evenodd" d="M6.4 15.3c-.9-2.4-.3-5.3 1.7-7.2 2.7-2.7 7.2-2.7 9.9 0s2.7 7.2 0 9.9c-2 2-4.8 2.5-7.3 1.6 0 0-3.4-1-4.3-4.3zM19.4 5.2l1.4-1.4c.4-.4 1-.4 1.4 0 .4.4.4 1 0 1.4l-1.4 1.4c-.4.4-1 .4-1.4 0-.4-.4-.4-1 0-1.4zM3.8 20.8l1.4-1.4c.4-.4 1-.4 1.4 0 .4.4.4 1 0 1.4l-1.4 1.4c-.4.4-1 .4-1.4 0-.4-.4-.4-1 0-1.4z"/><path class="icon__path" fill-rule="evenodd" clip-rule="evenodd" d="M10.7 6.4C13.2 5.5 16 6.1 18 8c2.7 2.7 2.7 7.2 0 9.9s-7.2 2.7-9.9 0c-2-2-2.5-4.8-1.6-7.3-.1.1.9-3.3 4.2-4.2zM19.4 19.4c.4-.4 1-.4 1.4 0l1.4 1.4c.4.4.4 1 0 1.4-.4.4-1 .4-1.4 0l-1.4-1.4c-.4-.4-.4-1 0-1.4zM3.8 3.8c.4-.4 1-.4 1.4 0l1.4 1.4c.4.4.4 1 0 1.4-.4.4-1 .4-1.4 0L3.8 5.2c-.4-.4-.4-1 0-1.4z"/><path class="icon__path" fill-rule="evenodd" clip-rule="evenodd" d="M6.7 10c1.1-2.4 3.5-4 6.3-4 3.9 0 7 3.1 7 7s-3.1 7-7 7c-2.8 0-5.2-1.6-6.3-4 0 0-1.8-3.1 0-6zM23 12h2c.6 0 1 .4 1 1s-.4 1-1 1h-2c-.6 0-1-.4-1-1s.4-1 1-1zM1 12h2c.6 0 1 .4 1 1s-.4 1-1 1H1c-.6 0-1-.4-1-1s.4-1 1-1z"/><path class="icon__path" fill-rule="evenodd" clip-rule="evenodd" d="M16 6.7c2.4 1.1 4 3.5 4 6.3 0 3.9-3.1 7-7 7s-7-3.1-7-7c0-2.8 1.6-5.2 4-6.3 0 0 3.1-1.8 6 0zM13 22c.6 0 1 .4 1 1v2c0 .6-.4 1-1 1s-1-.4-1-1v-2c0-.6.4-1 1-1zM13 0c.6 0 1 .4 1 1v2c0 .6-.4 1-1 1s-1-.4-1-1V1c0-.6.4-1 1-1z"/></svg>