<svg version="1" xmlns="http://www.w3.org/2000/svg" width="666.667" height="666.667" viewBox="0 0 500.000000 500.000000"><path d="M279 66.5c-23.8 5.3-42.4 21.3-52.5 45.5-4.3 10.2-7.1 21-9.5 37-1.2 7.4-2.4 13.8-2.8 14.1-.4.3-4.1 1.1-8.2 1.8-4.1.6-10.3 1.6-13.6 2.2l-6.2 1.1-.6 6.1c-.4 3.4-1 7.2-1.3 8.4-.5 2.2-.4 2.2 13.3 2.5 13.2.3 13.9.4 13.7 2.3-1.9 15.8-27.7 189.7-28.8 194.4-5.1 20.9-19.7 32.1-42.1 32.1-5.9 0-5.6-.4-7 11.1l-.6 5.7 7.3 1.7c10.9 2.5 28.7 3.1 37.9 1.1 23.8-5.1 40.5-22.1 48.1-48.9 1.1-4 8.7-50.1 16.9-102.6 8.2-52.5 15.3-95.8 15.8-96.3.4-.4 8.1-.9 17.2-1l16.4-.3 1.7-9.5c1-5.2 1.8-10.1 1.8-10.8.1-.9-3.9-1.2-16.9-1.2-16.5 0-17-.1-17-2.1 0-3.9 6.1-40.4 8.1-48.2 4.8-19.1 12.9-28.8 24.9-29.9l3.5-.3 1.9 20.2 2 20.3h3.1c8.3 0 17.5-5.7 22.3-13.8 2.4-4.2 2.7-5.7 2.7-13.7 0-7.7-.4-9.8-2.6-14-2.9-5.7-10-11.6-16.9-14.1-6.3-2.2-23.8-2.7-32-.9zM336.3 174c-9.8 2.3-17 10.5-19.9 22.5-4.9 21.2 6.7 34.4 27.2 30.6 11.3-2.1 18.7-8.9 21.8-20.2 4.5-15.7-.4-28.7-12.3-32.7-3.7-1.3-11.8-1.4-16.8-.2zM315 305.9c-11.3 3.5-17.1 11.4-17.8 24.8-.4 7-.1 8.8 1.8 12.8 2.9 6.1 8.6 10.1 16.1 11.6l5.9 1.2-2.8 4.9c-4.4 8-16.3 18.6-26.1 23.3l-8.3 4 .6 7.4c.3 4.1.8 7.6 1.1 7.9 1.1 1.1 17.6-5.1 24.7-9.2 23.7-14 39.1-40 37.5-63.2-1.2-16.9-10.6-26.6-25.3-26.3-2.7 0-6 .4-7.4.8z"/></svg>